<?xml version="1.0" encoding="UTF-8" standalone="no"?>
<!DOCTYPE svg PUBLIC "-//W3C//DTD SVG 1.1//EN"
 "http://www.w3.org/Graphics/SVG/1.1/DTD/svg11.dtd">
<!-- Generated by graphviz version 7.0.2 (20221119.0110)
 -->
<!-- Title: CSE 545 Pages: 1 -->
<svg width="909pt" height="673pt"
 viewBox="0.00 0.00 908.79 672.85" xmlns="http://www.w3.org/2000/svg" xmlns:xlink="http://www.w3.org/1999/xlink">
<g id="graph0" class="graph" transform="scale(1 1) rotate(0) translate(4 668.85)">
<title>CSE 545</title>
<polygon fill="white" stroke="none" points="-4,4 -4,-668.85 904.79,-668.85 904.79,4 -4,4"/>
<!-- [/home/tejas/Documents/testing.txt] -->
<g id="node1" class="node">
<title>[/home/tejas/Documents/testing.txt]</title>
<ellipse fill="none" stroke="black" cx="137.79" cy="-527.06" rx="137.58" ry="137.58"/>
<text text-anchor="middle" x="137.79" y="-523.36" font-family="Times,serif" font-size="14.00">[/home/tejas/Documents/testing.txt]</text>
</g>
<!-- 16295({&#39;zsh&#39;, &#39;cat&#39;}) -->
<g id="node2" class="node">
<title>16295({&#39;zsh&#39;, &#39;cat&#39;})</title>
<ellipse fill="none" stroke="black" cx="418.79" cy="-258.33" rx="79.89" ry="79.89"/>
<text text-anchor="middle" x="418.79" y="-254.63" font-family="Times,serif" font-size="14.00">16295({&#39;zsh&#39;, &#39;cat&#39;})</text>
</g>
<!-- [/home/tejas/Documents/testing.txt]&#45;&gt;16295({&#39;zsh&#39;, &#39;cat&#39;}) -->
<g id="edge1" class="edge">
<title>[/home/tejas/Documents/testing.txt]&#45;&gt;16295({&#39;zsh&#39;, &#39;cat&#39;})</title>
<path fill="none" stroke="steelblue" d="M48.34,-422.17C38.81,-399.46 37.41,-376.26 52.79,-356.27 86.15,-312.93 230.79,-284.97 327.94,-270.71"/>
<polygon fill="steelblue" stroke="steelblue" points="328.36,-274.19 337.75,-269.3 327.36,-267.26 328.36,-274.19"/>
<text text-anchor="middle" x="115.29" y="-360.07" font-family="Times,serif" font-size="14.00">read[103788 : 103790]</text>
</g>
<!-- [/home/tejas/Documents/testing.txt]&#45;&gt;16295({&#39;zsh&#39;, &#39;cat&#39;}) -->
<g id="edge3" class="edge">
<title>[/home/tejas/Documents/testing.txt]&#45;&gt;16295({&#39;zsh&#39;, &#39;cat&#39;})</title>
<path fill="none" stroke="steelblue" d="M184.89,-397.34C193.7,-382.43 203.95,-368.29 215.79,-356.27 247.55,-324.04 292.15,-301.12 331.46,-285.69"/>
<polygon fill="steelblue" stroke="steelblue" points="332.6,-289 340.71,-282.18 330.12,-282.46 332.6,-289"/>
<text text-anchor="middle" x="278.29" y="-360.07" font-family="Times,serif" font-size="14.00">read[103793 : 103794]</text>
</g>
<!-- [/dev/pts/1] -->
<g id="node5" class="node">
<title>[/dev/pts/1]</title>
<ellipse fill="none" stroke="black" cx="342.79" cy="-63.69" rx="51.19" ry="51.19"/>
<text text-anchor="middle" x="342.79" y="-59.99" font-family="Times,serif" font-size="14.00">[/dev/pts/1]</text>
</g>
<!-- 16295({&#39;zsh&#39;, &#39;cat&#39;})&#45;&gt;[/dev/pts/1] -->
<g id="edge5" class="edge">
<title>16295({&#39;zsh&#39;, &#39;cat&#39;})&#45;&gt;[/dev/pts/1]</title>
<path fill="none" stroke="red" d="M364.54,-199.39C356.06,-187.3 348.54,-174.06 343.79,-160.39 340.07,-149.68 338.26,-137.88 337.61,-126.33"/>
<polygon fill="red" stroke="red" points="341.11,-126.33 337.35,-116.42 334.11,-126.51 341.11,-126.33"/>
<text text-anchor="middle" x="408.79" y="-149.19" font-family="Times,serif" font-size="14.00">write[103791 : 103792]</text>
</g>
<!-- pipe(162954[]) -->
<g id="node6" class="node">
<title>pipe(162954[])</title>
<ellipse fill="none" stroke="black" cx="495.79" cy="-63.69" rx="63.89" ry="63.89"/>
<text text-anchor="middle" x="495.79" y="-59.99" font-family="Times,serif" font-size="14.00">pipe(162954[])</text>
</g>
<!-- 16295({&#39;zsh&#39;, &#39;cat&#39;})&#45;&gt;pipe(162954[]) -->
<g id="edge7" class="edge">
<title>16295({&#39;zsh&#39;, &#39;cat&#39;})&#45;&gt;pipe(162954[])</title>
<path fill="none" stroke="red" d="M460.4,-189.7C465.36,-180.07 470,-170.13 473.79,-160.39 476.58,-153.21 479.07,-145.58 481.29,-137.89"/>
<polygon fill="red" stroke="red" points="484.6,-139.03 483.83,-128.47 477.84,-137.21 484.6,-139.03"/>
<text text-anchor="middle" x="542.79" y="-149.19" font-family="Times,serif" font-size="14.00">write[103581 : 103584]</text>
</g>
<!-- 3348({&#39;zsh&#39;}) -->
<g id="node3" class="node">
<title>3348({&#39;zsh&#39;})</title>
<ellipse fill="none" stroke="black" cx="392.79" cy="-527.06" rx="57.69" ry="57.69"/>
<text text-anchor="middle" x="392.79" y="-523.36" font-family="Times,serif" font-size="14.00">3348({&#39;zsh&#39;})</text>
</g>
<!-- 3348({&#39;zsh&#39;})&#45;&gt;16295({&#39;zsh&#39;, &#39;cat&#39;}) -->
<g id="edge2" class="edge">
<title>3348({&#39;zsh&#39;})&#45;&gt;16295({&#39;zsh&#39;, &#39;cat&#39;})</title>
<path fill="none" stroke="black" d="M364.95,-476.21C349.56,-442.14 335.91,-396.11 348.79,-356.27 351.78,-347.02 356.02,-337.9 360.96,-329.18"/>
<polygon fill="black" stroke="black" points="363.84,-331.19 366.01,-320.82 357.84,-327.57 363.84,-331.19"/>
<text text-anchor="middle" x="408.79" y="-360.07" font-family="Times,serif" font-size="14.00">clone[None : 103500]</text>
</g>
<!-- 3348({&#39;zsh&#39;})&#45;&gt;16295({&#39;zsh&#39;, &#39;cat&#39;}) -->
<g id="edge6" class="edge">
<title>3348({&#39;zsh&#39;})&#45;&gt;16295({&#39;zsh&#39;, &#39;cat&#39;})</title>
<path fill="none" stroke="black" d="M423.5,-478.03C440.52,-448.51 459.98,-409.18 468.79,-371.27 471.55,-359.37 470.56,-347.17 467.36,-335.41"/>
<polygon fill="black" stroke="black" points="470.78,-334.6 464.32,-326.2 464.13,-336.79 470.78,-334.6"/>
<text text-anchor="middle" x="533.79" y="-360.07" font-family="Times,serif" font-size="14.00">execve[None : 103657]</text>
</g>
<!-- [/lib/aarch64&#45;linux&#45;gnu/libc.so.6] -->
<g id="node4" class="node">
<title>[/lib/aarch64&#45;linux&#45;gnu/libc.so.6]</title>
<ellipse fill="none" stroke="black" cx="641.79" cy="-527.06" rx="128.08" ry="128.08"/>
<text text-anchor="middle" x="641.79" y="-523.36" font-family="Times,serif" font-size="14.00">[/lib/aarch64&#45;linux&#45;gnu/libc.so.6]</text>
</g>
<!-- [/lib/aarch64&#45;linux&#45;gnu/libc.so.6]&#45;&gt;16295({&#39;zsh&#39;, &#39;cat&#39;}) -->
<g id="edge4" class="edge">
<title>[/lib/aarch64&#45;linux&#45;gnu/libc.so.6]&#45;&gt;16295({&#39;zsh&#39;, &#39;cat&#39;})</title>
<path fill="none" stroke="steelblue" d="M625.04,-399.93C619.34,-384.26 611.78,-369.22 601.79,-356.27 577.49,-324.8 540.04,-302.43 505.33,-287.17"/>
<polygon fill="steelblue" stroke="steelblue" points="507.11,-284.13 496.54,-283.45 504.38,-290.57 507.11,-284.13"/>
<text text-anchor="middle" x="671.29" y="-360.07" font-family="Times,serif" font-size="14.00">read[103695 : 103696]</text>
</g>
<!-- [/usr/bin/cat] -->
<g id="node7" class="node">
<title>[/usr/bin/cat]</title>
<ellipse fill="none" stroke="black" cx="843.79" cy="-527.06" rx="55.79" ry="55.79"/>
<text text-anchor="middle" x="843.79" y="-523.36" font-family="Times,serif" font-size="14.00">[/usr/bin/cat]</text>
</g>
<!-- [/usr/bin/cat]&#45;&gt;16295({&#39;zsh&#39;, &#39;cat&#39;}) -->
<g id="edge8" class="edge">
<title>[/usr/bin/cat]&#45;&gt;16295({&#39;zsh&#39;, &#39;cat&#39;})</title>
<path fill="none" stroke="black" d="M825.48,-473.89C814.49,-446.96 798.75,-414.55 778.79,-389.27 764.29,-370.92 758.47,-367.21 737.79,-356.27 664.99,-317.78 574.58,-292.13 508.62,-276.94"/>
<polygon fill="black" stroke="black" points="509.43,-273.53 498.9,-274.74 507.89,-280.36 509.43,-273.53"/>
<text text-anchor="middle" x="831.29" y="-360.07" font-family="Times,serif" font-size="14.00">execve[103645 : 103656]</text>
</g>
</g>
</svg>
